<mxfile host="Electron" agent="Mozilla/5.0 (Windows NT 10.0; Win64; x64) AppleWebKit/537.36 (KHTML, like Gecko) draw.io/28.1.2 Chrome/138.0.7204.243 Electron/37.4.0 Safari/537.36" version="28.1.2">
  <diagram id="ZxcDiVvFMPj9RRdGyyFQ" name="第 1 页">
    <mxGraphModel dx="2037" dy="1201" grid="0" gridSize="10" guides="1" tooltips="1" connect="1" arrows="1" fold="1" page="1" pageScale="1" pageWidth="827" pageHeight="1169" math="0" shadow="0">
      <root>
        <mxCell id="0" />
        <mxCell id="1" parent="0" />
        <mxCell id="Ym3tAZtQhxgDiFQlk5GE-8" value="&lt;font face=&quot;Times New Roman&quot;&gt;Page Table&lt;/font&gt;" style="rounded=0;whiteSpace=wrap;html=1;fontFamily=Courier New;fontSize=27;fillColor=#dae8fc;strokeColor=#6c8ebf;" parent="1" vertex="1">
          <mxGeometry x="181" y="636" width="550" height="174" as="geometry" />
        </mxCell>
        <mxCell id="Ym3tAZtQhxgDiFQlk5GE-16" value="&lt;font face=&quot;寒蝉端黑宋&quot;&gt;Kernel&lt;/font&gt;" style="rounded=0;whiteSpace=wrap;html=1;fontFamily=Courier New;fontSize=26;fillColor=#d5e8d4;strokeColor=#82b366;" parent="1" vertex="1">
          <mxGeometry x="179" y="420" width="551" height="216" as="geometry" />
        </mxCell>
        <mxCell id="fbvt6LVOYugwSKKvC5mB-5" value="&lt;span style=&quot;font-family: &amp;quot;Times New Roman&amp;quot;; font-size: 20px;&quot;&gt;Properties&lt;/span&gt;" style="rounded=0;whiteSpace=wrap;html=1;fillColor=#dae8fc;strokeColor=#6c8ebf;" parent="1" vertex="1">
          <mxGeometry x="181" y="938" width="550" height="60" as="geometry" />
        </mxCell>
        <mxCell id="fbvt6LVOYugwSKKvC5mB-6" value="&lt;font face=&quot;Times New Roman&quot;&gt;&lt;span style=&quot;font-size: 20px;&quot;&gt;UEFI Memory Map&lt;/span&gt;&lt;/font&gt;" style="rounded=0;whiteSpace=wrap;html=1;fillColor=#dae8fc;strokeColor=#6c8ebf;" parent="1" vertex="1">
          <mxGeometry x="181" y="810" width="550" height="127" as="geometry" />
        </mxCell>
        <mxCell id="fbvt6LVOYugwSKKvC5mB-8" value="" style="rounded=0;whiteSpace=wrap;html=1;" parent="1" vertex="1">
          <mxGeometry x="916" y="156" width="550" height="843" as="geometry" />
        </mxCell>
        <mxCell id="fbvt6LVOYugwSKKvC5mB-9" value="&lt;font style=&quot;font-size: 30px;&quot; face=&quot;Times New Roman&quot;&gt;Lower 4GB Identity-Map&lt;/font&gt;" style="rounded=0;whiteSpace=wrap;html=1;fillColor=#f5f5f5;fontColor=#333333;strokeColor=#666666;" parent="1" vertex="1">
          <mxGeometry x="916" y="822" width="550" height="177" as="geometry" />
        </mxCell>
        <mxCell id="fbvt6LVOYugwSKKvC5mB-10" value="&lt;font style=&quot;font-size: 30px;&quot; face=&quot;Times New Roman&quot;&gt;Boot Info&lt;/font&gt;" style="rounded=0;whiteSpace=wrap;html=1;fillColor=#dae8fc;strokeColor=#6c8ebf;" parent="1" vertex="1">
          <mxGeometry x="916" y="556" width="550" height="63" as="geometry" />
        </mxCell>
        <mxCell id="fbvt6LVOYugwSKKvC5mB-13" value="" style="endArrow=classic;html=1;rounded=0;entryX=1;entryY=1;entryDx=0;entryDy=0;exitX=0.015;exitY=0.587;exitDx=0;exitDy=0;exitPerimeter=0;" parent="1" target="fbvt6LVOYugwSKKvC5mB-10" edge="1" source="fbvt6LVOYugwSKKvC5mB-14">
          <mxGeometry width="50" height="50" relative="1" as="geometry">
            <mxPoint x="1496" y="492" as="sourcePoint" />
            <mxPoint x="789" y="404" as="targetPoint" />
          </mxGeometry>
        </mxCell>
        <mxCell id="fbvt6LVOYugwSKKvC5mB-14" value="&lt;font face=&quot;Times New Roman&quot; style=&quot;font-size: 14px;&quot;&gt;0xFFFF800000000000&lt;/font&gt;" style="text;html=1;align=center;verticalAlign=middle;resizable=0;points=[];autosize=1;strokeColor=none;fillColor=none;" parent="1" vertex="1">
          <mxGeometry x="1491" y="624" width="147" height="29" as="geometry" />
        </mxCell>
        <mxCell id="fbvt6LVOYugwSKKvC5mB-15" value="&lt;font face=&quot;Times New Roman&quot; style=&quot;font-size: 30px;&quot;&gt;Kernel Stack&lt;/font&gt;" style="rounded=0;whiteSpace=wrap;html=1;fillColor=#b0e3e6;strokeColor=#0e8088;" parent="1" vertex="1">
          <mxGeometry x="179" y="193" width="550" height="227" as="geometry" />
        </mxCell>
        <mxCell id="fbvt6LVOYugwSKKvC5mB-16" value="" style="endArrow=classic;html=1;rounded=0;entryX=1;entryY=0;entryDx=0;entryDy=0;" parent="1" target="fbvt6LVOYugwSKKvC5mB-15" edge="1">
          <mxGeometry width="50" height="50" relative="1" as="geometry">
            <mxPoint x="777" y="193" as="sourcePoint" />
            <mxPoint x="1115" y="495" as="targetPoint" />
          </mxGeometry>
        </mxCell>
        <mxCell id="fbvt6LVOYugwSKKvC5mB-17" value="&lt;code&gt;&lt;font style=&quot;font-size: 20px;&quot; face=&quot;Times New Roman&quot;&gt;ESP&lt;/font&gt;&lt;/code&gt;" style="text;html=1;align=left;verticalAlign=middle;resizable=0;points=[];autosize=1;strokeColor=none;fillColor=none;" parent="1" vertex="1">
          <mxGeometry x="781" y="172" width="52" height="36" as="geometry" />
        </mxCell>
        <mxCell id="ABHcJiq3GzYsRjkkfQex-20" value="&lt;font face=&quot;Times New Roman&quot;&gt;&lt;span style=&quot;font-size: 20px;&quot;&gt;Fixed&amp;nbsp;&lt;/span&gt;&lt;/font&gt;&lt;div&gt;&lt;font face=&quot;Times New Roman&quot;&gt;&lt;span style=&quot;font-size: 20px;&quot;&gt;24KB&amp;nbsp;&lt;/span&gt;&lt;/font&gt;&lt;/div&gt;" style="text;html=1;align=center;verticalAlign=middle;resizable=0;points=[];autosize=1;strokeColor=none;fillColor=none;" parent="1" vertex="1">
          <mxGeometry x="89" y="265" width="71" height="60" as="geometry" />
        </mxCell>
        <mxCell id="ABHcJiq3GzYsRjkkfQex-21" value="&lt;font style=&quot;font-size: 30px;&quot; face=&quot;Times New Roman&quot;&gt;MMIO&lt;/font&gt;" style="rounded=0;whiteSpace=wrap;html=1;fillColor=#e1d5e7;strokeColor=#9673a6;" parent="1" vertex="1">
          <mxGeometry x="916" y="239" width="550" height="63" as="geometry" />
        </mxCell>
        <mxCell id="ABHcJiq3GzYsRjkkfQex-22" value="&lt;font face=&quot;Times New Roman&quot; style=&quot;font-size: 14px;&quot;&gt;0xFFFFC00000000000&amp;nbsp;&lt;/font&gt;" style="text;html=1;align=center;verticalAlign=middle;resizable=0;points=[];autosize=1;strokeColor=none;fillColor=none;" parent="1" vertex="1">
          <mxGeometry x="1494" y="308" width="153" height="29" as="geometry" />
        </mxCell>
        <mxCell id="ABHcJiq3GzYsRjkkfQex-23" value="" style="endArrow=classic;html=1;rounded=0;entryX=1;entryY=1;entryDx=0;entryDy=0;exitX=-0.002;exitY=0.438;exitDx=0;exitDy=0;exitPerimeter=0;" parent="1" edge="1" source="ABHcJiq3GzYsRjkkfQex-22">
          <mxGeometry width="50" height="50" relative="1" as="geometry">
            <mxPoint x="1493" y="308" as="sourcePoint" />
            <mxPoint x="1463" y="302" as="targetPoint" />
          </mxGeometry>
        </mxCell>
        <mxCell id="34qVQUc4BFAK5-WFJvxb-3" value="&lt;font face=&quot;Times New Roman&quot;&gt;&lt;span style=&quot;font-size: 30px;&quot;&gt;Kernel&lt;/span&gt;&lt;/font&gt;" style="rounded=0;whiteSpace=wrap;html=1;fillColor=#d5e8d4;strokeColor=#82b366;" vertex="1" parent="1">
          <mxGeometry x="916" y="436" width="550" height="63" as="geometry" />
        </mxCell>
        <mxCell id="34qVQUc4BFAK5-WFJvxb-7" value="&lt;font face=&quot;Times New Roman&quot; style=&quot;font-size: 14px;&quot;&gt;0xFFFF804000000000&lt;/font&gt;" style="text;html=1;align=center;verticalAlign=middle;resizable=0;points=[];autosize=1;strokeColor=none;fillColor=none;" vertex="1" parent="1">
          <mxGeometry x="1491" y="505" width="147" height="29" as="geometry" />
        </mxCell>
        <mxCell id="34qVQUc4BFAK5-WFJvxb-8" value="" style="endArrow=classic;html=1;rounded=0;exitX=0.009;exitY=0.389;exitDx=0;exitDy=0;exitPerimeter=0;entryX=1.002;entryY=0.402;entryDx=0;entryDy=0;entryPerimeter=0;" edge="1" parent="1" source="34qVQUc4BFAK5-WFJvxb-7" target="fbvt6LVOYugwSKKvC5mB-8">
          <mxGeometry width="50" height="50" relative="1" as="geometry">
            <mxPoint x="1491" y="592" as="sourcePoint" />
            <mxPoint x="1541" y="542" as="targetPoint" />
          </mxGeometry>
        </mxCell>
        <mxCell id="34qVQUc4BFAK5-WFJvxb-13" value="&lt;font face=&quot;Times New Roman&quot; style=&quot;font-size: 32px;&quot;&gt;Staging Block&lt;/font&gt;" style="text;html=1;align=center;verticalAlign=middle;whiteSpace=wrap;rounded=0;" vertex="1" parent="1">
          <mxGeometry x="181" y="1024" width="550" height="90" as="geometry" />
        </mxCell>
        <mxCell id="34qVQUc4BFAK5-WFJvxb-14" value="&lt;font face=&quot;Times New Roman&quot; style=&quot;font-size: 32px;&quot;&gt;Virtual Space&lt;/font&gt;" style="text;html=1;align=center;verticalAlign=middle;whiteSpace=wrap;rounded=0;" vertex="1" parent="1">
          <mxGeometry x="916" y="1020" width="550" height="90" as="geometry" />
        </mxCell>
        <mxCell id="34qVQUc4BFAK5-WFJvxb-15" value="&lt;font face=&quot;Times New Roman&quot;&gt;&lt;span style=&quot;font-size: 30px;&quot;&gt;Kernel Stack&lt;/span&gt;&lt;/font&gt;" style="rounded=0;whiteSpace=wrap;html=1;fillColor=#b0e3e6;strokeColor=#0e8088;" vertex="1" parent="1">
          <mxGeometry x="916" y="337" width="550" height="63" as="geometry" />
        </mxCell>
        <mxCell id="34qVQUc4BFAK5-WFJvxb-17" value="&lt;font face=&quot;Times New Roman&quot; style=&quot;font-size: 14px;&quot;&gt;0xFFFF808000000000&lt;/font&gt;" style="text;html=1;align=center;verticalAlign=middle;resizable=0;points=[];autosize=1;strokeColor=none;fillColor=none;" vertex="1" parent="1">
          <mxGeometry x="1499" y="412" width="147" height="29" as="geometry" />
        </mxCell>
        <mxCell id="34qVQUc4BFAK5-WFJvxb-18" value="" style="endArrow=classic;html=1;rounded=0;exitX=0.008;exitY=0.528;exitDx=0;exitDy=0;exitPerimeter=0;" edge="1" parent="1" source="34qVQUc4BFAK5-WFJvxb-17">
          <mxGeometry width="50" height="50" relative="1" as="geometry">
            <mxPoint x="1508" y="428" as="sourcePoint" />
            <mxPoint x="1460" y="398" as="targetPoint" />
          </mxGeometry>
        </mxCell>
        <mxCell id="34qVQUc4BFAK5-WFJvxb-22" value="" style="shape=flexArrow;endArrow=classic;html=1;rounded=0;" edge="1" parent="1">
          <mxGeometry width="50" height="50" relative="1" as="geometry">
            <mxPoint x="770" y="628" as="sourcePoint" />
            <mxPoint x="885" y="628" as="targetPoint" />
          </mxGeometry>
        </mxCell>
      </root>
    </mxGraphModel>
  </diagram>
</mxfile>
